<svg xmlns="http://www.w3.org/2000/svg" viewBox="60 296 763 630" width="763" height="630"><g transform="translate(435.0 508.6) scale(0.6) translate(-435.0 -387.0)"><g transform="translate(9.97,9.70) scale(0.67000) translate(60 11) scale(0.9)"><path d="M600.00,395.00L621.67,416.67L768.33,416.67L803.33,380.00L803.33,283.33L771.67,253.33L803.33,226.67L803.33,155.00L755.00,110.00L600.00,110.00ZM666.67,178.33L730.00,178.33L730.00,230.67L666.67,230.67ZM666.67,305.00L730.00,305.00L730.00,354.00L666.67,354.00Z" fill="#2FC9AC" fill-rule="evenodd"/><path d="M600.00,110.00L666.67,178.33L755.00,110.00Z" fill="#7FE3CE" fill-rule="evenodd"/><path d="M666.67,354.00L698.33,368.33L748.33,376.67L721.67,354.00Z" fill="#7FE3CE" fill-rule="evenodd"/><path d="M666.67,178.33L730.00,178.33L755.00,156.67L755.00,110.00Z" fill="#1FB89C" fill-rule="evenodd"/><path d="M771.67,256.67L635.00,270.00L666.67,305.00L730.00,305.00Z" fill="#1FB89C" fill-rule="evenodd"/><path d="M635.00,270.00L638.33,378.33L666.67,354.00L666.67,305.00Z" fill="#1FB89C" fill-rule="evenodd"/><path d="M755.00,110.00L755.00,156.67L730.00,178.33L730.00,230.67L771.67,253.33L803.33,226.67L803.33,155.00Z" fill="#12907A" fill-rule="evenodd"/><path d="M771.67,256.67L730.00,305.00L730.00,354.00L751.67,416.67L768.33,416.67L803.33,380.00L803.33,283.33Z" fill="#12907A" fill-rule="evenodd"/><path d="M638.33,378.33L621.67,416.67L751.67,416.67L748.33,376.67L698.33,354.00L666.67,354.00Z" fill="#2FC9AC" fill-rule="evenodd"/><path d="M 1167.3192371052141,612.0949085980926 C 1167.3192371052141,629.1605073678642 1153.4848358749855,642.9949085980926 1136.419237105214,642.9949085980926 C 1119.3536383354426,642.9949085980926 1105.519237105214,629.1605073678642 1105.519237105214,612.0949085980926 C 1105.519237105214,595.0293098283211 1119.3536383354426,581.1949085980926 1136.419237105214,581.1949085980926 C 1153.4848358749855,581.1949085980926 1167.3192371052141,595.0293098283211 1167.3192371052141,612.0949085980926" fill="#2FC9AC" fill-rule="evenodd"/><path d="M 135.76241943022066,1103.2099702965322 C 135.76241943022066,1110.665814419248 129.71826355293638,1116.7099702965322 122.26241943022066,1116.7099702965322 C 114.80657530750494,1116.7099702965322 108.76241943022066,1110.665814419248 108.76241943022066,1103.2099702965322 C 108.76241943022066,1095.7541261738165 114.80657530750494,1089.7099702965322 122.26241943022066,1089.7099702965322 C 129.71826355293638,1089.7099702965322 135.76241943022066,1095.7541261738165 135.76241943022066,1103.2099702965322 M 195.26658590798812,1082.7653361605005 C 195.26658590798812,1090.2211802832162 189.22243003070383,1096.2653361605005 181.76658590798812,1096.2653361605005 C 174.3107417852724,1096.2653361605005 168.26658590798812,1090.2211802832162 168.26658590798812,1082.7653361605005 C 168.26658590798812,1075.3094920377848 174.3107417852724,1069.2653361605005 181.76658590798812,1069.2653361605005 C 189.22243003070383,1069.2653361605005 195.26658590798812,1075.3094920377848 195.26658590798812,1082.7653361605005 M 254.71628688275183,1062.1633134701901 C 254.71628688275183,1069.6191575929058 248.67213100546755,1075.6633134701901 241.21628688275183,1075.6633134701901 C 233.7604427600361,1075.6633134701901 227.71628688275183,1069.6191575929058 227.71628688275183,1062.1633134701901 C 227.71628688275183,1054.7074693474744 233.7604427600361,1048.6633134701901 241.21628688275183,1048.6633134701901 C 248.67213100546755,1048.6633134701901 254.71628688275183,1054.7074693474744 254.71628688275183,1062.1633134701901 M 314.3147663916333,1041.9949109227414 C 314.3147663916333,1049.450755045457 308.270610514349,1055.4949109227414 300.8147663916333,1055.4949109227414 C 293.35892226891764,1055.4949109227414 287.3147663916333,1049.450755045457 287.3147663916333,1041.9949109227414 C 287.3147663916333,1034.5390668000257 293.35892226891764,1028.4949109227414 300.8147663916333,1028.4949109227414 C 308.270610514349,1028.4949109227414 314.3147663916333,1034.5390668000257 314.3147663916333,1041.9949109227414 M 373.68389874839215,1021.1629907676188 C 373.68389874839215,1028.6188348903345 367.63974287110784,1034.6629907676188 360.18389874839215,1034.6629907676188 C 352.72805462567646,1034.6629907676188 346.68389874839215,1028.6188348903345 346.68389874839215,1021.1629907676188 C 346.68389874839215,1013.7071466449031 352.72805462567646,1007.6629907676188 360.18389874839215,1007.6629907676188 C 367.63974287110784,1007.6629907676188 373.68389874839215,1013.7071466449031 373.68389874839215,1021.1629907676188 M 432.80583617185533,999.6393493226574 C 432.80583617185533,1007.0951934453731 426.761680294571,1013.1393493226574 419.30583617185533,1013.1393493226574 C 411.84999204913964,1013.1393493226574 405.80583617185533,1007.0951934453731 405.80583617185533,999.6393493226574 C 405.80583617185533,992.1835051999417 411.84999204913964,986.1393493226574 419.30583617185533,986.1393493226574 C 426.761680294571,986.1393493226574 432.80583617185533,992.1835051999417 432.80583617185533,999.6393493226574 M 491.3976077276924,976.7189738583361 C 491.3976077276924,984.1748179810518 485.3534518504081,990.2189738583361 477.8976077276924,990.2189738583361 C 470.4417636049767,990.2189738583361 464.3976077276924,984.1748179810518 464.3976077276924,976.7189738583361 C 464.3976077276924,969.2631297356204 470.4417636049767,963.2189738583361 477.8976077276924,963.2189738583361 C 485.3534518504081,963.2189738583361 491.3976077276924,969.2631297356204 491.3976077276924,976.7189738583361 M 549.1319935018081,951.7116255320269 C 549.1319935018081,959.1674696547426 543.0878376245238,965.2116255320269 535.6319935018081,965.2116255320269 C 528.1761493790924,965.2116255320269 522.1319935018081,959.1674696547426 522.1319935018081,951.7116255320269 C 522.1319935018081,944.2557814093112 528.1761493790924,938.2116255320269 535.6319935018081,938.2116255320269 C 543.0878376245238,938.2116255320269 549.1319935018081,944.2557814093112 549.1319935018081,951.7116255320269 M 606.5130302268475,925.9018155037512 C 606.5130302268475,933.3576596264669 600.4688743495632,939.4018155037512 593.0130302268475,939.4018155037512 C 585.5571861041318,939.4018155037512 579.5130302268475,933.3576596264669 579.5130302268475,925.9018155037512 C 579.5130302268475,918.4459713810355 585.5571861041318,912.4018155037512 593.0130302268475,912.4018155037512 C 600.4688743495632,912.4018155037512 606.5130302268475,918.4459713810355 606.5130302268475,925.9018155037512 M 663.6693897213454,899.6005417616263 C 663.6693897213454,907.056385884342 657.6252338440611,913.1005417616263 650.1693897213454,913.1005417616263 C 642.7135455986297,913.1005417616263 636.6693897213454,907.056385884342 636.6693897213454,899.6005417616263 C 636.6693897213454,892.1446976389107 642.7135455986297,886.1005417616263 650.1693897213454,886.1005417616263 C 657.6252338440611,886.1005417616263 663.6693897213454,892.1446976389107 663.6693897213454,899.6005417616263 M 720.3661756071547,872.3212245718274 C 720.3661756071547,879.7770686945431 714.3220197298704,885.8212245718274 706.8661756071547,885.8212245718274 C 699.410331484439,885.8212245718274 693.3661756071547,879.7770686945431 693.3661756071547,872.3212245718274 C 693.3661756071547,864.8653804491117 699.410331484439,858.8212245718274 706.8661756071547,858.8212245718274 C 714.3220197298704,858.8212245718274 720.3661756071547,864.8653804491117 720.3661756071547,872.3212245718274 M 776.6953141010777,844.2905478555965 C 776.6953141010777,851.7463919783122 770.6511582237933,857.7905478555965 763.1953141010777,857.7905478555965 C 755.739469978362,857.7905478555965 749.6953141010777,851.7463919783122 749.6953141010777,844.2905478555965 C 749.6953141010777,836.8347037328808 755.739469978362,830.7905478555965 763.1953141010777,830.7905478555965 C 770.6511582237933,830.7905478555965 776.6953141010777,836.8347037328808 776.6953141010777,844.2905478555965 M 832.5021752514394,815.2353944505326 C 832.5021752514394,822.6912385732483 826.4580193741551,828.7353944505326 819.0021752514394,828.7353944505326 C 811.5463311287238,828.7353944505326 805.5021752514394,822.6912385732483 805.5021752514394,815.2353944505326 C 805.5021752514394,807.7795503278169 811.5463311287238,801.7353944505326 819.0021752514394,801.7353944505326 C 826.4580193741551,801.7353944505326 832.5021752514394,807.7795503278169 832.5021752514394,815.2353944505326 M 888.0229275115921,785.635232304673 C 888.0229275115921,793.0910764273887 881.9787716343078,799.135232304673 874.5229275115921,799.135232304673 C 867.0670833888764,799.135232304673 861.0229275115921,793.0910764273887 861.0229275115921,785.635232304673 C 861.0229275115921,778.1793881819573 867.0670833888764,772.135232304673 874.5229275115921,772.135232304673 C 881.9787716343078,772.135232304673 888.0229275115921,778.1793881819573 888.0229275115921,785.635232304673 M 942.8497374766903,754.7760211749203 C 942.8497374766903,762.231865297636 936.805581599406,768.2760211749203 929.3497374766903,768.2760211749203 C 921.8938933539746,768.2760211749203 915.8497374766903,762.231865297636 915.8497374766903,754.7760211749203 C 915.8497374766903,747.3201770522046 921.8938933539746,741.2760211749203 929.3497374766903,741.2760211749203 C 936.805581599406,741.2760211749203 942.8497374766903,747.3201770522046 942.8497374766903,754.7760211749203 M 996.0907901971495,721.2546161318419 C 996.0907901971495,728.7104602545576 990.0466343198652,734.7546161318419 982.5907901971495,734.7546161318419 C 975.1349460744339,734.7546161318419 969.0907901971495,728.7104602545576 969.0907901971495,721.2546161318419 C 969.0907901971495,713.7987720091262 975.1349460744339,707.7546161318419 982.5907901971495,707.7546161318419 C 990.0466343198652,707.7546161318419 996.0907901971495,713.7987720091262 996.0907901971495,721.2546161318419 M 1048.6525688968945,686.6724400166845 C 1048.6525688968945,694.1282841394002 1042.6084130196102,700.1724400166845 1035.1525688968945,700.1724400166845 C 1027.6967247741788,700.1724400166845 1021.6525688968945,694.1282841394002 1021.6525688968945,686.6724400166845 C 1021.6525688968945,679.2165958939688 1027.6967247741788,673.1724400166845 1035.1525688968945,673.1724400166845 C 1042.6084130196102,673.1724400166845 1048.6525688968945,679.2165958939688 1048.6525688968945,686.6724400166845 M 1100.3943257806209,650.8903725646329 C 1100.3943257806209,658.3462166873486 1094.3501699033366,664.3903725646329 1086.8943257806209,664.3903725646329 C 1079.4384816579052,664.3903725646329 1073.3943257806209,658.3462166873486 1073.3943257806209,650.8903725646329 C 1073.3943257806209,643.4345284419172 1079.4384816579052,637.3903725646329 1086.8943257806209,637.3903725646329 C 1094.3501699033366,637.3903725646329 1100.3943257806209,643.4345284419172 1100.3943257806209,650.8903725646329 M 279.39,993.6997694157409 L 281.46,991.4762441145803 C 282.6,990.2664121919461 289.24,984.1914069753697 296.22,978.3688190000343 C 314.09,967.8492687812841 324.18,957.9879837654603 328.58,952.4392243307486 C 330.53,950.1648303637962 330.58,950.0626006385824 330.75,948.2797161382432 C 331.24,944.02 337.79,929.67 351.04,910.0 C 359.91,896.82 363.97,891.89 366.8,890.84 C 375.82,887.52 395.04,878.42 402.09,874.13 C 403.93,873.01 405.54,872.2 405.66,872.32 C 405.78,872.45 402.12,881.93 397.52,893.4 C 384.69,915.6002991624446 377.19,922.6469326613484 363.92,935.5295954089515 C 358.11,942.2442890302735 354.4,945.5990412551957 349.19,948.5464283424146 C 347.66,949.4449577532781 346.65,950.4133877398326 345.33,952.2522742362947 C 344.35,953.6447003509913 338.64,961.3272887910773 332.65,965.1194785475492 C 321.53,972.6641563885314 308.82,988.9701474843463 303.02,992.7831339874149 C 301.24,994.0171747344089 297.92,996.2955126063638 295.64,997.8712417893234 L 270.0,1005.0 L 279.39,993.6997694157409 M 413.52,953.2632538698634 C 415.04,953.7665464199878 415.38,953.7383830421733 415.89,953.0816519446049 C 416.54,952.2452498892496 416.56,952.2342691160318 421.82,946.7326378351356 C 425.57,942.9803835108179 431.3,937.2799017102591 434.65,934.0024546763985 C 435.76,932.9950335437237 437.94,931.2611946980188 439.49,930.1980403232808 C 441.05,929.2430428366777 443.64,927.9056303525431 445.25,927.3744216587044 C 448.66,929.7747199972891 451.96,924.8 454.34,921.18 C 455.92,918.77 456.0,918.46 455.53,916.43 C 453.72,908.58 456.93,881.98 461.96,863.25 C 466.09,847.84 467.39,843.44 470.44,834.7 C 476.34,817.72 480.69,807.28 482.82,804.92 C 483.38,804.3 483.53,803.55 483.31,802.38 C 482.45,797.82 485.49,791.78 490.59,787.92 C 509.09,773.91 533.14,762.64 563.25,753.88 L 567.25,752.72 L 567.56,748.73 C 568.34,738.59 574.68,724.62 582.05,716.81 L 585.86,712.78 L 592.05,714.87 C 598.17,716.92 600.61,717.42 606.0,717.68 C 609.32,717.85 609.49,718.33 608.26,724.28 C 606.71,731.8 602.57,741.61 597.02,750.97 C 592.44,758.67 590.26,761.4 586.84,763.67 C 584.41,765.28 583.98,765.83 583.31,768.13 C 582.4,771.24 580.03,773.7 573.25,778.57 C 551.34,794.29 527.1,805.4 504.17,810.23 C 502.15,810.65 502.13,810.69 502.04,817.51 C 501.79,835.38 497.87,866.77 494.04,881.5 C 491.45,891.51 489.59,897.3 486.51,905.0 C 481.45,917.66 478.04,922.52 472.49,924.99 C 471.77,925.32 470.57,926.77 469.69,928.4 C 467.18,933.05 463.21,939.31 458.06,937.6417759716434 C 455.39,938.2770451846518 452.13,939.7827878326219 450.82,940.5933640672692 C 449.52,941.4686954391184 445.64,944.0783965083604 442.21,946.5477823227565 C 438.78,949.1966849278723 434.82,952.4616611928718 433.41,953.6813868827364 C 431.99,954.9209038439515 429.17,957.3745155907559 427.15,959.1569801255478 L 423.46,962.5079719038087 L 400.0,964.0 L 413.52,953.2632538698634 M 275.25,899.29 C 267.16,898.67 267.24,898.7 266.78,895.89 C 262.02,866.62 263.4,844.39 271.47,820.36 C 296.29,746.47 375.01,683.25 435.65,688.5 C 453.83,690.07 470.53,696.36 476.67,703.94 C 492.94,724.02 496.0,737.57 489.98,762.75 C 481.34,798.87 453.41,835.06 413.83,861.43 C 404.28,867.79 385.65,878.14 379.5,880.5 C 378.54,880.87 376.51,881.73 375.0,882.41 C 366.35,886.29 346.72,892.41 334.75,894.96 C 327.03,896.6 324.47,897.06 318.25,897.95 C 303.93,899.98 289.81,900.42 275.25,899.29 M 681.4,828.9321106661375 L 679.19,826.9363462095267 C 677.98,825.8438844453868 676.43,824.1452219356529 675.74,823.1512290260451 C 674.86,821.8885319799854 672.97,820.526102358655 669.32,818.5810865269437 C 660.09,813.9702279762722 649.94,805.293716727167 642.56,799.3203289265213 C 636.55,790.04 629.6,767.72 628.72,760.69 C 628.44,758.45 628.13,757.9 626.2,756.29 C 622.31,753.04 621.0,748.96 621.0,740.08 C 621.0,732.63 622.63,719.31 623.96,715.84 C 625.0,713.14 624.69,711.84 623.09,712.16 C 605.59,715.66 589.59,712.52 580.09,703.73 C 576.57,700.47 575.0,699.88 575.0,701.8 C 575.0,702.75 574.06,703.59 571.39,705.01 C 568.61,706.5 568.18,706.33 567.86,703.62 C 567.24,698.46 564.35,691.98 560.21,686.52 C 558.08,683.7 557.51,682.6 557.87,682.02 C 558.55,680.92 562.37,678.88 565.0,678.22 L 567.25,677.65 L 567.64,673.95 C 569.49,656.49 577.87,636.91 592.77,615.25 C 610.14,590.0 637.09,568.83 660.24,562.23 C 667.99,560.02 670.01,559.76 679.5,559.75 C 692.11,559.75 698.68,561.42 705.13,566.26 C 709.35,569.44 708.95,569.72 710.93,562.12 C 712.32,556.74 713.86,552.88 714.65,552.8 C 714.87,552.77 715.57,554.21 716.2,556.0 C 719.34,564.8 724.92,575.07 729.21,579.94 C 730.1,580.93 731.35,582.51 731.99,583.45 L 733.17,585.15 L 732.0,587.35 C 730.76,589.7 729.17,591.05 726.75,591.85 C 724.98,592.43 724.99,592.4 726.0,601.41 C 728.09,619.95 721.75,640.46 707.98,659.7 C 705.12,663.7 692.47,677.46 687.45,682.03 C 686.38,683.01 685.5,683.99 685.5,684.2 C 685.5,684.8 689.06,682.53 691.02,680.67 C 693.38,678.44 693.8,678.55 697.0,682.26 C 698.51,684.02 699.99,685.46 700.29,685.48 C 700.59,685.49 701.59,684.43 702.52,683.12 C 704.64,680.15 717.61,667.09 724.22,661.28 C 737.57,649.55 759.65,635.07 771.46,630.3 C 778.49,627.46 785.16,629.42 788.09,635.19 C 788.67,636.32 790.31,638.6 791.74,640.25 C 795.51,644.61 801.81,652.96 805.89,659.03 C 820.87,681.28 833.94,702.51869099622 834.01,707.7753735515314 C 834.02,708.363298229536 834.44,708.942534951029 835.04,709.1880190792014 C 835.6,709.4253810192057 839.88,712.0890085452088 844.55,715.5045527373003 C 849.23,719.2330220673872 854.67,723.7215352639605 856.65,725.281720521793 C 858.63,726.8678581850722 861.24,729.0202271345528 862.45,730.0537247306206 C 864.88,732.1652605494354 864.83,732.1588760463527 868.3,730.8908784455152 L 875.0,742.0 L 855.6,741.0544983440263 L 852.69,738.7282549229733 C 851.09,737.4832063539044 847.97,735.1966198149563 845.76,733.6601453850853 C 836.69,727.7413586672214 824.95,720.8672492018138 821.35,718.9021279237382 C 820.86,718.6640350174721 820.07,718.6407091924975 819.6,718.8331754280381 C 809.25,724.0196008220698 788.37,696.71 778.59,662.0 C 777.77,659.11 776.97,656.13 776.79,655.38 C 776.62,654.62 776.27,654.0 776.0,654.0 C 775.74,654.0 771.87,657.72 767.41,662.28 C 750.51,679.53 732.64,693.9 718.5,701.61 C 716.71,702.59 714.22,703.95 712.96,704.63 C 711.7,705.32 709.23,706.4 707.46,707.02 C 705.7,707.65 703.91,708.45 703.49,708.81 C 700.43,711.38 694.78,712.19 691.25,710.55 C 689.5,709.74 675.0,695.75 672.81,692.75 C 672.11,691.8 672.0,691.79 670.66,692.57 C 664.86,695.95 656.82,700.2 651.86,702.51 C 646.04,705.21 641.89,708.04 642.63,708.78 C 642.96,709.12 647.86,708.21 650.77,707.27 C 651.7,706.97 651.85,707.27 652.47,710.75 C 654.01,719.41 651.24,739.44 647.52,746.58 C 646.15,749.2 646.09,748.99 649.56,753.65 C 659.51,767.01 670.71,785.85 675.64,786.9291590429617 C 681.41,792.411832103854 686.21,803.5471118756317 687.25,812.6390852212184 C 687.67,816.456649737413 691.89,822.4572624615826 693.95,822.1762325019574 L 691.0,835.0 L 681.4,828.9321106661375 M 520.26,751.45 C 513.1,750.69 507.12,748.42 501.12,744.16 C 498.61,742.38 498.0,741.68 498.0,740.6 C 497.98,731.94 493.54,718.74 488.23,711.52 C 485.56,707.9 485.53,707.04 487.78,700.42 C 492.41,686.81 502.7,677.16 516.25,673.73 C 520.49,672.66 529.88,672.52 534.2,673.46 C 555.47,678.1 569.77,701.79 564.07,722.94 C 560.67,735.56 551.58,745.16 538.9,749.53 C 532.21,751.84 528.05,752.27 520.26,751.45 M 892.0,649.18 C 879.5,646.71 869.29,639.75 860.04,627.39 L 857.9,624.53 L 852.52,624.84 C 842.88,625.39 833.11,623.86 821.25,619.94 C 789.8,609.54 765.77,584.25 760.72,556.25 C 757.33,537.43 767.7,513.81 784.25,502.66 C 795.42,495.13 807.26,491.63 823.44,491.07 L 832.63,490.75 L 834.09,487.0 C 834.89,484.94 835.85,482.46 836.21,481.5 C 836.58,480.54 837.83,477.5 838.99,474.75 C 841.39,469.07 846.03,457.88 849.35,449.75 C 857.07,430.85 867.37,407.13 868.39,405.91 C 868.77,405.45 871.49,403.66 874.42,401.93 C 877.35,400.21 883.35,396.45 887.75,393.57 C 892.15,390.7 898.79,386.39 902.5,384.0 C 906.21,381.61 912.74,377.4 917.0,374.65 C 924.21,370.0 941.86,358.79 948.75,354.49 C 962.78,345.72 971.34,341.88 976.82,341.88 C 986.89,341.88 992.4,350.54 987.97,359.41 C 985.45,364.45 982.06,366.7 966.75,373.51 C 962.9,375.22 954.12,379.21 947.25,382.38 C 935.37,387.85 932.21,389.31 921.76,394.16 C 919.28,395.31 908.73,400.52 898.3,405.75 L 879.35,415.25 L 877.65,419.25 C 876.71,421.45 875.64,423.93 875.26,424.75 C 874.89,425.57 874.13,427.38 873.59,428.75 C 873.04,430.12 871.92,432.71 871.09,434.5 C 870.26,436.29 869.1,438.97 868.51,440.46 C 867.93,441.95 867.02,444.11 866.5,445.25 C 865.98,446.39 865.11,448.44 864.58,449.79 C 864.04,451.14 862.93,453.71 862.1,455.5 C 861.28,457.29 860.13,459.82 859.55,461.12 C 858.97,462.43 858.02,464.57 857.44,465.88 C 856.86,467.18 855.96,469.21 855.44,470.38 C 854.92,471.54 854.02,473.57 853.44,474.88 C 852.86,476.18 851.89,478.38 851.28,479.75 C 850.67,481.12 849.42,484.16 848.51,486.5 C 847.59,488.84 846.66,490.96 846.42,491.22 C 845.22,492.57 846.1,493.28 850.63,494.63 C 853.17,495.38 855.5,496.0 855.82,496.0 C 856.13,496.0 859.5,491.16 863.32,485.24 C 867.13,479.33 873.12,470.05 876.63,464.62 C 880.13,459.19 884.73,452.05 886.84,448.75 C 888.96,445.45 893.58,438.33 897.12,432.92 C 904.35,421.88 902.53,423.43 912.75,419.6 C 914.95,418.77 919.67,416.95 923.25,415.55 C 926.83,414.14 929.92,413.0 930.13,413.0 C 930.34,413.0 931.46,412.58 932.63,412.06 C 935.33,410.86 941.47,408.52 947.25,406.5 C 949.73,405.64 952.88,404.51 954.25,404.0 C 955.62,403.49 958.72,402.38 961.12,401.54 C 963.53,400.69 967.36,399.34 969.62,398.53 C 971.89,397.72 980.61,394.74 989.0,391.91 L 1004.25,386.78 L 1010.0,386.87 C 1013.16,386.93 1017.33,387.21 1019.25,387.5 C 1029.74,389.09 1031.72,389.46 1040.62,391.47 C 1057.42,395.25 1070.62,399.78 1075.22,403.34 C 1080.3,407.28 1082.14,414.74 1079.38,420.25 C 1077.27,424.46 1071.42,427.37 1066.05,426.86 C 1061.43,426.43 1041.39,419.35 1017.8,409.82 L 1007.35,405.59 L 1002.55,407.25 C 999.91,408.16 994.71,409.84 991.0,410.98 C 987.29,412.12 983.69,413.25 983.0,413.49 C 982.31,413.74 979.39,414.64 976.5,415.5 C 973.61,416.36 969.79,417.5 968.0,418.04 C 966.21,418.57 963.85,419.26 962.75,419.56 C 961.65,419.87 960.19,420.29 959.5,420.5 C 958.81,420.71 957.35,421.13 956.25,421.43 C 953.84,422.09 947.42,423.84 945.0,424.49 C 941.69,425.39 928.65,429.32 923.5,430.98 C 920.51,431.94 917.46,432.8 915.5,433.22 C 913.63,433.62 913.36,433.91 910.65,438.25 C 907.87,442.69 899.25,455.72 881.1,482.86 C 874.45,492.82 869.0,501.26 869.0,501.61 C 869.0,501.96 870.07,502.81 871.37,503.5 C 886.18,511.3 903.03,527.41 914.75,544.98 C 933.7,573.39 940.13,603.46 931.95,625.5 C 930.86,628.43 927.94,634.01 927.51,633.99 C 927.37,633.98 926.12,632.15 924.75,629.92 C 923.38,627.69 921.45,624.58 920.48,623.01 C 919.3,621.12 918.4,618.76 917.81,616.01 C 917.0,612.21 916.7,611.63 914.35,609.14 C 908.46,602.91 898.7,599.38 891.81,600.97 C 889.14,601.59 888.83,602.02 889.42,604.31 C 889.69,605.38 890.17,607.71 890.49,609.5 C 890.8,611.29 891.86,614.49 892.85,616.61 C 894.53,620.22 894.62,620.67 894.3,623.79 C 894.01,626.61 894.12,627.44 895.04,629.33 C 896.9,633.18 903.47,637.86 911.0,640.7 C 912.24,641.17 914.01,642.18 914.94,642.94 L 916.64,644.33 L 914.94,645.37 C 910.14,648.31 907.09,649.11 900.0,649.27 C 896.29,649.36 892.69,649.31 892.0,649.18 M 728.3,629.52 C 730.88,620.64 731.83,609.7 730.88,600.0 L 730.52,596.25 L 734.29,592.32 C 737.87,588.6 738.16,588.41 739.66,588.77 C 740.53,588.98 745.95,589.09 751.69,589.02 C 763.6,588.88 762.98,588.64 762.99,593.28 C 763.01,598.79 760.72,604.46 756.23,610.05 C 751.27,616.22 739.42,626.53 732.5,630.7 C 726.76,634.16 726.94,634.21 728.3,629.52 M 739.11,585.92 C 736.2,583.85 730.07,576.49 727.47,571.95 C 722.04,562.45 716.5,549.86 716.5,547.0 C 716.5,544.37 723.51,538.14 731.63,533.55 C 735.14,531.56 740.83,530.53 748.72,530.46 C 754.93,530.4 755.06,530.47 757.49,535.33 C 758.51,537.38 758.55,537.8 758.02,540.86 C 756.3,550.71 758.48,565.04 763.06,574.11 C 764.61,577.16 764.04,583.45 762.06,585.05 C 761.33,585.64 759.42,585.93 754.67,586.17 C 751.14,586.34 746.56,586.62 744.5,586.78 C 741.11,587.05 740.59,586.97 739.11,585.92 M 642.84,558.91 C 631.99,542.08 625.21,528.76 620.36,514.75 C 618.76,510.15 618.82,502.58 620.48,499.34 C 624.68,491.12 636.32,488.0 645.36,492.68 C 649.35,494.74 662.55,514.77 667.21,525.83 C 670.08,532.66 671.99,542.87 672.0,551.55 L 672.0,555.35 L 668.62,555.65 C 662.16,556.22 653.22,559.07 645.89,562.89 C 645.69,562.99 644.32,561.2 642.84,558.91 M 857.75,553.57 C 861.78,551.74 864.5,547.42 864.5,542.83 C 864.5,536.3 859.41,530.34 854.6,531.24 C 851.46,531.83 846.51,538.43 846.5,542.05 C 846.5,545.67 852.39,554.52 854.8,554.49 C 855.32,554.48 856.65,554.07 857.75,553.57 M 714.11,542.88 C 704.54,519.59 703.27,505.93 709.92,498.03 L 711.86,495.73 L 712.12,490.24 C 712.87,474.14 729.3,422.51 737.7,409.86 C 741.7,403.84 744.43,402.01 750.04,401.63 C 762.41,400.78 766.73,412.76 762.7,436.75 C 759.4,456.33 747.01,484.13 735.98,496.65 C 734.89,497.89 734.0,499.03 734.0,499.18 C 734.0,499.33 735.13,500.52 736.51,501.81 C 742.38,507.3 753.35,525.57 752.34,528.18 C 752.15,528.7 750.81,529.0 747.66,529.23 C 740.24,529.79 732.33,531.45 728.59,533.24 C 724.99,534.97 718.91,540.62 717.15,543.88 C 715.94,546.11 715.36,545.92 714.11,542.88 M 621.27,490.85 C 621.17,490.52 620.95,484.06 620.78,476.5 C 620.32,455.77 619.49,444.23 616.95,423.5 C 616.04,416.08 615.84,409.02 616.47,406.81 C 620.08,394.04 633.3,389.9 642.17,398.77 C 645.24,401.84 647.58,407.83 649.05,416.41 C 651.14,428.58 651.18,429.14 651.19,446.25 C 651.19,467.61 649.93,476.76 645.7,485.92 L 644.47,488.59 L 641.86,488.17 C 640.42,487.94 636.89,487.76 634.0,487.76 C 628.96,487.78 628.61,487.85 625.1,489.62 C 622.66,490.85 621.39,491.26 621.27,490.85 M 759.89,402.27 C 758.23,400.81 751.1,398.5 748.25,398.5 C 745.56,398.5 745.61,398.59 746.08,394.63 C 747.92,379.15 755.31,352.65 762.47,335.81 C 771.45,314.72 783.87,296.19 791.75,292.13 C 797.32,289.26 805.2,290.5 809.01,294.84 C 814.77,301.4 814.35,309.78 807.78,319.24 C 803.46,325.46 788.99,348.28 783.99,356.76 C 776.99,368.62 770.86,381.34 765.96,394.2 C 764.58,397.8 763.21,401.37 762.92,402.12 C 762.26,403.8 761.66,403.83 759.89,402.27" fill="#E6EFED" fill-rule="evenodd"/></g></g><g transform="translate(82.54,894.04) scale(0.12174)"><path d="M445.4 12.0Q384.7 12.0 330.9 -9.0Q277.0 -29.9 237.9 -82.5H229.3L214.6 0.0H65.0V-724.5H249.8V-465.4H257.8Q280.4 -491.4 311.9 -507.8Q343.5 -524.3 379.3 -531.9Q415.1 -539.5 449.5 -539.5Q528.1 -539.5 589.6 -509.8Q651.0 -480.1 686.8 -419.1Q722.5 -358.1 722.5 -263.5Q722.5 -169.9 686.5 -108.7Q650.6 -47.5 588.2 -17.7Q525.8 12.0 445.4 12.0ZM391.9 -125.7Q439.1 -125.7 471.0 -141.9Q502.8 -158.0 518.8 -187.4Q534.7 -216.8 534.7 -255.5V-272.1Q534.7 -310.8 518.8 -339.6Q502.8 -368.5 471.4 -385.2Q440.0 -401.8 392.8 -401.8Q357.1 -401.8 330.2 -391.8Q303.3 -381.9 285.1 -364.3Q266.9 -346.7 257.8 -322.0Q248.8 -297.4 248.8 -267.0V-260.1Q248.8 -220.4 264.7 -190.0Q280.6 -159.6 312.7 -142.7Q344.7 -125.7 391.9 -125.7Z M1025.0 12.0Q975.8 12.0 933.4 4.8Q891.0 -2.5 859.4 -20.0Q827.8 -37.5 810.3 -67.7Q792.8 -98.0 792.8 -144.6Q792.8 -208.1 826.9 -244.4Q861.1 -280.6 924.0 -297.4Q987.0 -314.3 1072.5 -318.8Q1158.0 -323.3 1260.7 -323.3V-339.4Q1260.7 -369.6 1245.5 -387.7Q1230.4 -405.8 1200.8 -413.7Q1171.2 -421.7 1126.6 -421.7Q1094.6 -421.7 1065.0 -417.0Q1035.3 -412.4 1016.3 -401.8Q997.3 -391.1 997.3 -372.6V-364.9H810.4Q809.4 -368.9 809.2 -372.1Q809.0 -375.3 809.0 -379.7Q809.0 -426.7 845.9 -462.8Q882.9 -498.9 955.9 -519.2Q1028.9 -539.5 1136.5 -539.5Q1236.0 -539.5 1305.0 -522.3Q1373.9 -505.0 1409.7 -466.5Q1445.4 -428.1 1445.4 -363.2V-152.5Q1445.4 -135.1 1453.2 -124.3Q1461.0 -113.5 1478.3 -113.5H1531.5V-6.6Q1517.2 -1.0 1486.3 5.5Q1455.5 12.0 1420.2 12.0Q1370.8 12.0 1341.1 1.8Q1311.4 -8.4 1296.9 -25.7Q1282.3 -43.1 1276.1 -63.9H1268.1Q1239.6 -40.7 1202.5 -23.3Q1165.4 -5.9 1121.0 3.0Q1076.6 12.0 1025.0 12.0ZM1076.9 -105.3Q1099.7 -105.3 1130.5 -110.4Q1161.3 -115.5 1191.3 -126.6Q1221.3 -137.6 1241.0 -155.1Q1260.7 -172.7 1260.7 -198.0V-228.3Q1162.3 -228.3 1099.1 -220.2Q1035.9 -212.2 1005.9 -195.8Q975.9 -179.5 975.9 -153.0Q975.9 -132.6 990.7 -122.4Q1005.4 -112.2 1028.9 -108.8Q1052.3 -105.3 1076.9 -105.3Z M1586.0 0.0V-527.5H1735.6L1748.3 -439.7H1757.3Q1785.2 -476.5 1822.0 -498.3Q1858.7 -520.0 1900.2 -529.8Q1941.7 -539.5 1982.9 -539.5Q2059.6 -539.5 2110.7 -515.2Q2161.8 -490.8 2187.7 -441.7Q2213.5 -392.5 2213.5 -318.4V0.0H2028.7V-292.8Q2028.7 -319.7 2021.1 -340.5Q2013.5 -361.3 1999.0 -374.7Q1984.5 -388.2 1963.3 -395.0Q1942.0 -401.8 1914.2 -401.8Q1874.6 -401.8 1842.0 -385.7Q1809.5 -369.6 1790.1 -341.1Q1770.8 -312.7 1770.8 -275.1V0.0Z M2585.5 12.0Q2505.1 12.0 2442.7 -17.7Q2380.3 -47.5 2344.3 -108.7Q2308.4 -169.9 2308.4 -263.5Q2308.4 -358.1 2344.1 -419.1Q2379.8 -480.1 2441.3 -509.8Q2502.8 -539.5 2581.3 -539.5Q2616.3 -539.5 2652.1 -531.9Q2687.9 -524.3 2719.5 -507.8Q2751.0 -491.4 2773.0 -465.4H2781.1V-724.5H2965.8V0.0H2816.3L2801.5 -82.5H2793.0Q2753.8 -29.9 2700.0 -9.0Q2646.2 12.0 2585.5 12.0ZM2638.9 -125.7Q2686.6 -125.7 2718.4 -142.7Q2750.3 -159.6 2766.2 -190.0Q2782.1 -220.4 2782.1 -260.1V-267.0Q2782.1 -297.4 2773.1 -322.0Q2764.0 -346.7 2745.8 -364.3Q2727.6 -381.9 2700.7 -391.8Q2673.8 -401.8 2638.0 -401.8Q2591.3 -401.8 2559.7 -385.2Q2528.1 -368.5 2512.1 -339.6Q2496.1 -310.8 2496.1 -272.1V-255.5Q2496.1 -216.8 2512.3 -187.4Q2528.5 -158.0 2560.1 -141.9Q2591.7 -125.7 2638.9 -125.7Z M3254.2 0.0 3023.3 -527.5H3222.4L3310.8 -287.0Q3318.2 -268.4 3324.7 -248.5Q3331.1 -228.7 3336.6 -211.5Q3342.1 -194.3 3344.7 -182.7H3353.2Q3356.8 -194.9 3362.0 -212.2Q3367.2 -229.4 3373.4 -249.0Q3379.5 -268.5 3385.3 -286.6L3465.3 -527.5H3671.6L3749.9 -286.6Q3753.5 -276.3 3758.9 -257.6Q3764.4 -238.9 3770.0 -218.9Q3775.6 -198.9 3780.0 -182.7H3788.0Q3792.5 -198.1 3798.4 -217.2Q3804.4 -236.3 3810.8 -254.9Q3817.3 -273.6 3821.8 -286.6L3911.0 -527.5H4096.7L3865.3 0.0H3680.3L3601.7 -236.5Q3594.7 -257.3 3587.9 -279.0Q3581.0 -300.8 3575.1 -319.8Q3569.3 -338.8 3565.3 -351.2H3557.8Q3553.9 -337.9 3547.8 -318.2Q3541.7 -298.4 3535.1 -276.6Q3528.4 -254.8 3522.0 -234.9L3444.8 0.0Z M4154.0 -600.5V-724.5H4338.8V-600.5ZM4154.0 0.0V-527.5H4338.8V0.0Z M4747.3 12.0Q4688.2 12.0 4631.7 2.5Q4575.1 -7.0 4529.7 -26.3Q4484.3 -45.5 4457.3 -76.6Q4430.3 -107.6 4430.3 -151.3Q4430.3 -155.2 4430.5 -158.9Q4430.7 -162.6 4431.7 -166.6H4621.7Q4621.1 -164.0 4620.9 -161.3Q4620.7 -158.5 4620.7 -156.5Q4621.2 -135.9 4638.9 -123.1Q4656.6 -110.2 4685.4 -104.3Q4714.2 -98.3 4747.7 -98.3Q4776.4 -98.3 4807.8 -101.5Q4839.3 -104.6 4860.7 -114.7Q4882.2 -124.7 4882.2 -146.5Q4882.2 -168.7 4853.8 -178.0Q4825.5 -187.3 4777.5 -192.4Q4729.6 -197.6 4670.0 -205.5Q4625.3 -212.0 4585.3 -222.7Q4545.4 -233.4 4514.3 -251.5Q4483.3 -269.5 4465.4 -298.1Q4447.6 -326.7 4447.6 -368.3Q4447.6 -416.2 4471.1 -448.9Q4494.7 -481.5 4536.7 -501.6Q4578.6 -521.6 4634.7 -530.6Q4690.7 -539.5 4755.7 -539.5Q4812.7 -539.5 4865.2 -530.9Q4917.8 -522.2 4959.2 -503.7Q5000.7 -485.3 5025.0 -456.7Q5049.3 -428.2 5049.3 -388.9Q5049.3 -385.5 5049.3 -381.4Q5049.3 -377.4 5048.3 -374.5H4859.5V-380.6Q4859.5 -397.7 4843.9 -408.3Q4828.3 -418.8 4804.5 -424.0Q4780.6 -429.2 4753.7 -429.2Q4743.3 -429.2 4723.0 -428.5Q4702.8 -427.8 4681.8 -424.1Q4660.9 -420.4 4646.3 -412.3Q4631.8 -404.1 4631.8 -388.8Q4631.8 -370.1 4656.5 -361.5Q4681.2 -353.0 4721.4 -348.8Q4761.7 -344.7 4808.7 -339.3Q4857.0 -334.0 4903.3 -325.2Q4949.6 -316.5 4986.3 -298.7Q5023.0 -280.9 5044.7 -250.0Q5066.4 -219.2 5066.4 -169.5Q5066.4 -117.8 5042.5 -82.7Q5018.7 -47.5 4975.7 -26.8Q4932.8 -6.0 4874.5 3.0Q4816.2 12.0 4747.3 12.0Z M5492.6 12.0Q5384.6 12.0 5304.6 -17.2Q5224.5 -46.5 5180.5 -107.7Q5136.4 -169.0 5136.4 -263.5Q5136.4 -356.1 5179.7 -417.6Q5223.1 -479.1 5301.5 -509.3Q5380.0 -539.5 5484.8 -539.5Q5594.7 -539.5 5672.5 -509.9Q5750.2 -480.2 5791.1 -420.3Q5832.0 -360.5 5832.0 -269.9V-227.4H5329.8Q5332.2 -184.9 5352.2 -157.8Q5372.2 -130.8 5408.8 -118.3Q5445.4 -105.9 5495.5 -105.9Q5521.8 -105.9 5547.2 -111.4Q5572.5 -117.0 5592.8 -127.2Q5613.2 -137.5 5625.7 -152.1Q5638.3 -166.7 5639.7 -185.3H5829.7Q5829.7 -139.8 5804.8 -103.2Q5780.0 -66.7 5734.8 -41.0Q5689.6 -15.3 5627.8 -1.6Q5566.0 12.0 5492.6 12.0ZM5330.3 -324.8H5634.9Q5634.9 -347.3 5624.4 -365.0Q5613.9 -382.8 5594.5 -395.4Q5575.2 -408.1 5548.8 -414.9Q5522.4 -421.7 5491.2 -421.7Q5444.0 -421.7 5409.7 -409.7Q5375.3 -397.8 5355.3 -375.8Q5335.3 -353.7 5330.3 -324.8Z" fill="#E6EFED"/></g></svg>